<mxfile host="app.diagrams.net" modified="2024-03-19T04:30:12.285Z" agent="Mozilla/5.0" version="22.1.21">
  <diagram id="use-case-diagram" name="Use Case Diagram">
    <mxGraphModel dx="1200" dy="800" grid="1" gridSize="10" guides="1" tooltips="1" connect="1" arrows="1" fold="1" page="1" pageScale="1" pageWidth="850" pageHeight="1100">
      <root>
        <mxCell id="0"/>
        <mxCell id="1" parent="0"/>
        
        <!-- System boundary -->
        <mxCell id="system" value="Hệ thống quản lý lớp học" style="shape=rectangle;whiteSpace=wrap;html=1;align=center;verticalAlign=top;" vertex="1" parent="1">
          <mxGeometry x="180" y="80" width="400" height="500" as="geometry"/>
        </mxCell>
        
        <!-- Actors -->
        <mxCell id="teacher" value="Giáo viên" style="shape=umlActor;verticalLabelPosition=bottom;verticalAlign=top;" vertex="1" parent="1">
          <mxGeometry x="50" y="200" width="30" height="60" as="geometry"/>
        </mxCell>
        
        <!-- Use Cases -->
        <mxCell id="uc1" value="Tạo lớp học" style="ellipse;whiteSpace=wrap;html=1;" vertex="1" parent="1">
          <mxGeometry x="200" y="150" width="140" height="70" as="geometry"/>
        </mxCell>

        <!-- Relationships -->
        <mxCell id="rel1" value="" style="endArrow=none;html=1;" edge="1" parent="1" source="teacher" target="uc1">
          <mxGeometry relative="1" as="geometry"/>
        </mxCell>
      </root>
    </mxGraphModel>
  </diagram>
</mxfile>
